<?xml version="1.0" encoding="utf-8"?>
<!-- Generator: Adobe Illustrator 27.3.1, SVG Export Plug-In . SVG Version: 6.00 Build 0)  -->
<svg version="1.1" id="Layer_1" xmlns="http://www.w3.org/2000/svg" xmlns:xlink="http://www.w3.org/1999/xlink" x="0px" y="0px"
	 viewBox="0 0 1337 1036" style="enable-background:new 0 0 1337 1036;" xml:space="preserve">
<style type="text/css">
	.st0{fill:#FFFFFF;}
	.st1{fill-rule:evenodd;clip-rule:evenodd;fill:#324B7C;}
	.st2{fill-rule:evenodd;clip-rule:evenodd;fill:#747C94;}
	.st3{fill-rule:evenodd;clip-rule:evenodd;fill:#516C9C;}
	.st4{fill:#242264;}
	.st5{clip-path:url(#SVGID_00000142149271749536721750000008909006801020249764_);}
	.st6{fill:#232262;stroke:#FFFFFF;stroke-width:8;stroke-miterlimit:10;}
	.st7{opacity:0.5;}
	.st8{fill:#232262;}
	.st9{fill:#232262;stroke:#FFFFFF;stroke-width:2;stroke-miterlimit:10;stroke-dasharray:12,12;}
</style>
<g>
	<rect x="1716.5" y="-1172.3" class="st0" width="1412.1" height="3638.9"/>
</g>
<path class="st1" d="M2550.9,2004.6c-0.5,0.8-1.2,0.6-1.2-0.3c0-0.3,0.4-0.5,0.9-0.5C2551.3,2003.8,2551.4,2003.9,2550.9,2004.6"/>
<path class="st1" d="M2541.6,2017.2c-0.3,0.4-0.7,0.7-0.9,0.5c-0.5-0.4,0-1.3,0.7-1.3C2542,2016.4,2542,2016.6,2541.6,2017.2"/>
<path class="st1" d="M2502,2070.7c-0.4,0.6-0.5,1.1-0.3,1.1c0.5,0,1.5-1.6,1.2-1.9C2502.9,2069.7,2502.4,2070.1,2502,2070.7"/>
<path class="st2" d="M2482.8,1911.5"/>
<path class="st3" d="M2386.8,2044.2c0.5,0.1,1,0.7,1.1,1.4c0.2,1,0.2,1,0.1-0.2c-0.1-1.1-0.3-1.4-1.1-1.4
	C2386.1,2044,2386.1,2044,2386.8,2044.2"/>
<rect x="1716.5" y="-1172.3" class="st4" width="1412.1" height="2937.8"/>
<g>
	<defs>
		<path id="SVGID_1_" d="M2007.6-911.7l875.9,24.9c1,0,1.9,0.9,1.9,1.9V40.2c0,1.1-0.9,1.9-2,1.9l-875.9-24.9c-1,0-1.9-0.9-1.9-1.9
			v-925.1C2005.6-910.9,2006.5-911.7,2007.6-911.7z"/>
	</defs>
	<use xlink:href="#SVGID_1_"  style="overflow:visible;fill:#242264;"/>
	<clipPath id="SVGID_00000113343895803144897250000013577679221635061892_">
		<use xlink:href="#SVGID_1_"  style="overflow:visible;"/>
	</clipPath>
	<g style="clip-path:url(#SVGID_00000113343895803144897250000013577679221635061892_);">
		<path class="st6" d="M2237.1-639.8c2.3,0,4.1-1.9,4.1-4.3s-1.8-4.3-4.1-4.3c-2.3,0-4.1,1.9-4.1,4.3S2234.9-639.8,2237.1-639.8
			L2237.1-639.8z M2258.8-462.6c2.3,0,4.1-1.9,4.1-4.3c0-2.4-1.8-4.3-4.1-4.3c-2.3,0-4.1,1.9-4.1,4.3
			C2254.8-464.5,2256.6-462.6,2258.8-462.6L2258.8-462.6z M2517.3-740.8c2.3,0,4.1-1.9,4.1-4.3c0-2.4-1.8-4.3-4.1-4.3
			s-4.1,1.9-4.1,4.3C2513.2-742.7,2515.1-740.8,2517.3-740.8z M2392.5-378c2.3,0,4.1-1.9,4.1-4.3s-1.8-4.3-4.1-4.3c0,0,0,0,0,0
			c-2.3,0-4.1,1.9-4.1,4.3C2388.5-380,2390.3-378,2392.5-378z M2580-408.1c2.3,0,4.1-1.9,4.1-4.3s-1.8-4.3-4.1-4.3c0,0,0,0,0,0
			c-2.3,0-4.1,1.9-4.1,4.3C2575.9-410,2577.7-408.1,2580-408.1z M2580-608.5c2.3,0,4.1-1.9,4.1-4.3s-1.8-4.3-4.1-4.3
			s-4.1,1.9-4.1,4.3S2577.7-608.5,2580-608.5z M2746.3-483.2c2.3,0,4.1-1.9,4.1-4.3c0-2.4-1.8-4.3-4.1-4.3c-2.3,0-4.1,1.9-4.1,4.3
			C2742.3-485.2,2744.1-483.2,2746.3-483.2z M2746.3-683.6c2.3,0,4.1-1.9,4.1-4.3s-1.8-4.3-4.1-4.3c-2.3,0-4.1,1.9-4.1,4.3
			S2744.1-683.6,2746.3-683.6z M2377.9-808.8c2.3,0,4.1-1.9,4.1-4.3s-1.8-4.3-4.1-4.3c0,0,0,0,0,0c-2.3,0-4.1,1.9-4.1,4.3
			C2373.8-810.7,2375.7-808.8,2377.9-808.8z M2175.9-583.4c2.3,0,4.1-1.9,4.1-4.3c0-2.4-1.8-4.3-4.1-4.3s-4.1,1.9-4.1,4.3
			C2171.8-585.3,2173.6-583.4,2175.9-583.4z M2389.8-583.4c2.3,0,4.1-1.9,4.1-4.3c0-2.4-1.8-4.3-4.1-4.3s-4.1,1.9-4.1,4.3
			C2385.7-585.3,2387.6-583.4,2389.8-583.4z M2639.4-182.7c2.3,0,4.1-1.9,4.1-4.3s-1.8-4.3-4.1-4.3c0,0,0,0,0,0
			c-2.3,0-4.1,1.9-4.1,4.3C2635.3-184.6,2637.1-182.7,2639.4-182.7z M2758.2-307.9c2.2,0,4.1-1.9,4.1-4.3s-1.8-4.3-4.1-4.3
			c-2.3,0-4.1,1.9-4.1,4.3S2756-307.9,2758.2-307.9C2758.2-307.9,2758.2-307.9,2758.2-307.9z M2401.7-182.7c2.3,0,4.1-1.9,4.1-4.3
			s-1.8-4.3-4.1-4.3c0,0,0,0,0,0c-2.3,0-4.1,1.9-4.1,4.3C2397.6-184.6,2399.4-182.7,2401.7-182.7z M2401.7-57.5
			c2.3,0,4.1-1.9,4.1-4.3c0-2.4-1.8-4.3-4.1-4.3c0,0,0,0,0,0c-2.3,0-4.1,1.9-4.1,4.3C2397.6-59.4,2399.4-57.5,2401.7-57.5z
			 M2520.5-32.5c2.3,0,4.1-1.9,4.1-4.3s-1.8-4.3-4.1-4.3c0,0,0,0,0,0c-2.3,0-4.1,1.9-4.1,4.3C2516.5-34.4,2518.3-32.5,2520.5-32.5z
			 M2218-223.9c2.3,0,4.1-1.9,4.1-4.3s-1.8-4.3-4.1-4.3c0,0,0,0,0,0c-2.3,0-4.1,1.9-4.1,4.3C2213.9-225.9,2215.7-223.9,2218-223.9z
			 M2055.6-409.7c2.3,0,4.1-1.9,4.1-4.3c0-2.4-1.8-4.3-4.1-4.3c0,0,0,0,0,0c-2.3,0-4.1,1.9-4.1,4.3
			C2051.5-411.6,2053.3-409.7,2055.6-409.7z M2184.3-363.8c2.3,0,4.1-1.9,4.1-4.3c0-2.4-1.8-4.3-4.1-4.3c0,0,0,0,0,0
			c-2.3,0-4.1,1.9-4.1,4.3C2180.2-365.7,2182.1-363.8,2184.3-363.8z M2235.3-114.9c2.3,0,4.1-1.9,4.1-4.3s-1.8-4.3-4.1-4.3
			c0,0,0,0,0,0c-2.3,0-4.1,1.9-4.1,4.3C2231.2-116.8,2233.1-114.9,2235.3-114.9z M2527-265.7c2.3,0,4.1-1.9,4.1-4.3
			s-1.8-4.3-4.1-4.3c0,0,0,0,0,0c-2.3,0-4.1,1.9-4.1,4.3C2522.9-267.6,2524.7-265.7,2527-265.7z M2527.5-527.6
			c2.3,0,4.1-1.9,4.1-4.3s-1.8-4.3-4.1-4.3s-4.1,1.9-4.1,4.3S2525.2-527.6,2527.5-527.6z M2362.1-737.3c2.3,0,4.1-1.9,4.1-4.3
			s-1.8-4.3-4.1-4.3s-4.1,1.9-4.1,4.3S2359.8-737.3,2362.1-737.3z M2184.3-785.3c2.3,0,4.1-1.9,4.1-4.3s-1.8-4.3-4.1-4.3
			s-4.1,1.9-4.1,4.3S2182.1-785.3,2184.3-785.3z M2306.1-856.8c2.3,0,4.1-1.9,4.1-4.3s-1.8-4.3-4.1-4.3c0,0,0,0,0,0
			c-2.3,0-4.1,1.9-4.1,4.3C2302-858.7,2303.9-856.8,2306.1-856.8z M2493.8-876.6c2.3,0,4.1-1.9,4.1-4.3c0-2.4-1.8-4.3-4.1-4.3
			c0,0,0,0,0,0c-2.3,0-4.1,1.9-4.1,4.3C2489.7-878.5,2491.6-876.6,2493.8-876.6z M2709.7-802.5c2.3,0,4.1-1.9,4.1-4.3
			c0-2.4-1.8-4.3-4.1-4.3s-4.1,1.9-4.1,4.3C2705.6-804.5,2707.5-802.5,2709.7-802.5z M2795.4-696.8c2.2,0,4.1-1.9,4.1-4.3
			s-1.8-4.3-4.1-4.3c-2.2,0-4.1,1.9-4.1,4.3S2793.1-696.8,2795.4-696.8z M2867.7-515.1c2.2,0,4.1-1.9,4.1-4.3s-1.8-4.3-4.1-4.3
			c-2.2,0-4.1,1.9-4.1,4.3S2865.4-515.1,2867.7-515.1z M2877.5-367.9c2.2,0,4.1-1.9,4.1-4.3s-1.8-4.3-4.1-4.3
			c-2.2,0-4.1,1.9-4.1,4.3S2875.2-367.9,2877.5-367.9z M2820.6-194.2c2.2,0,4.1-1.9,4.1-4.3s-1.8-4.3-4.1-4.3
			c-2.2,0-4.1,1.9-4.1,4.3S2818.4-194.2,2820.6-194.2z M2731.7-74.2c2.3,0,4.1-1.9,4.1-4.3c0-2.4-1.8-4.3-4.1-4.3c0,0,0,0,0,0
			c-2.3,0-4.1,1.9-4.1,4.3C2727.7-76.1,2729.5-74.2,2731.7-74.2z M2612.9,0.1c2.3,0,4.1-1.9,4.1-4.3s-1.8-4.3-4.1-4.3c0,0,0,0,0,0
			c-2.3,0-4.1,1.9-4.1,4.3C2608.8-1.8,2610.6,0.1,2612.9,0.1z M2451.7,35.6c2.3,0,4.1-1.9,4.1-4.3c0-2.4-1.8-4.3-4.1-4.3
			c0,0,0,0,0,0c-2.3,0-4.1,1.9-4.1,4.3C2447.6,33.7,2449.5,35.6,2451.7,35.6z M2283.3,4.4c2.3,0,4.1-1.9,4.1-4.3s-1.8-4.3-4.1-4.3
			c0,0,0,0,0,0c-2.3,0-4.1,1.9-4.1,4.3C2279.3,2.5,2281.1,4.4,2283.3,4.4z M2119.1-114.9c2.3,0,4.1-1.9,4.1-4.3s-1.8-4.3-4.1-4.3
			c0,0,0,0,0,0c-2.3,0-4.1,1.9-4.1,4.3C2115-116.8,2116.8-114.9,2119.1-114.9z M2033.8-270.9c2.3,0,4.1-1.9,4.1-4.3
			c0-2.4-1.8-4.3-4.1-4.3c0,0,0,0,0,0c-2.3,0-4.1,1.9-4.1,4.3C2029.7-272.8,2031.5-270.9,2033.8-270.9z M2013.5-487.4
			c2.3,0,4.1-1.9,4.1-4.3c0-2.4-1.8-4.3-4.1-4.3s-4.1,1.9-4.1,4.3C2009.4-489.3,2011.2-487.4,2013.5-487.4z M2073.4-663.2
			c2.3,0,4.1-1.9,4.1-4.3c0-2.4-1.8-4.3-4.1-4.3c-2.3,0-4.1,1.9-4.1,4.3C2069.3-665.2,2071.1-663.2,2073.4-663.2z M2528.5-610.5
			c2.3,0,4.1-1.9,4.1-4.3c0-2.4-1.8-4.3-4.1-4.3c-2.3,0-4.1,1.9-4.1,4.3C2524.4-612.4,2526.2-610.5,2528.5-610.5z M2350.6-279.8
			c2.3,0,4.1-1.9,4.1-4.3c0-2.4-1.8-4.3-4.1-4.3c0,0,0,0,0,0c-2.3,0-4.1,1.9-4.1,4.3C2346.5-281.7,2348.3-279.8,2350.6-279.8z
			 M2443.4-509.3c2.3,0,4.1-1.9,4.1-4.3c0-2.4-1.8-4.3-4.1-4.3c-2.3,0-4.1,1.9-4.1,4.3C2439.3-511.2,2441.2-509.3,2443.4-509.3z
			 M2640.3-720.8c2.3,0,4.1-1.9,4.1-4.3c0-2.4-1.8-4.3-4.1-4.3c-2.3,0-4.1,1.9-4.1,4.3C2636.2-722.7,2638-720.8,2640.3-720.8z
			 M2703-394.7c2.3,0,4.1-1.9,4.1-4.3c0-2.4-1.8-4.3-4.1-4.3c0,0,0,0,0,0c-2.3,0-4.1,1.9-4.1,4.3
			C2699-396.6,2700.8-394.7,2703-394.7z M2651-303.6c2.3,0,4.1-1.9,4.1-4.3s-1.8-4.3-4.1-4.3c0,0,0,0,0,0c-2.3,0-4.1,1.9-4.1,4.3
			C2647-305.6,2648.8-303.6,2651-303.6z M2527-134.8c2.3,0,4.1-1.9,4.1-4.3c0-2.4-1.8-4.3-4.1-4.3c0,0,0,0,0,0
			c-2.3,0-4.1,1.9-4.1,4.3C2522.9-136.8,2524.7-134.8,2527-134.8z"/>
		<g class="st7">
			<path class="st8" d="M2493.8-880.9l215.9,74.1L2493.8-880.9z"/>
			<path class="st9" d="M2493.8-880.9l215.9,74.1"/>
		</g>
		<g class="st7">
			<path class="st8" d="M2306.1-861.1l187.7-19.8L2306.1-861.1z"/>
			<path class="st9" d="M2306.1-861.1l187.7-19.8"/>
		</g>
		<g class="st7">
			<path class="st8" d="M2184.3-789.6l121.8-71.5L2184.3-789.6z"/>
			<path class="st9" d="M2184.3-789.6l121.8-71.5"/>
		</g>
		<g class="st7">
			<path class="st8" d="M2073.4-667.5l110.9-122.1L2073.4-667.5z"/>
			<path class="st9" d="M2073.4-667.5l110.9-122.1"/>
		</g>
		<g class="st7">
			<path class="st8" d="M2013.5-491.7l59.9-175.8L2013.5-491.7z"/>
			<path class="st9" d="M2013.5-491.7l59.9-175.8"/>
		</g>
		<g class="st7">
			<path class="st8" d="M2033.8-275.2l-20.3-216.5L2033.8-275.2z"/>
			<path class="st9" d="M2033.8-275.2l-20.3-216.5"/>
		</g>
		<g class="st7">
			<path class="st8" d="M2119.1-119.2l-85.3-156L2119.1-119.2z"/>
			<path class="st9" d="M2119.1-119.2l-85.3-156"/>
		</g>
		<g class="st7">
			<path class="st8" d="M2283.3,0.1l-164.3-119.3L2283.3,0.1z"/>
			<path class="st9" d="M2283.3,0.1l-164.3-119.3"/>
		</g>
		<g class="st7">
			<path class="st8" d="M2451.7,31.3L2279.3,0.1L2451.7,31.3z"/>
			<path class="st9" d="M2451.7,31.3L2279.3,0.1"/>
		</g>
		<g class="st7">
			<path class="st8" d="M2612.9-4.2l-161.2,35.5L2612.9-4.2z"/>
			<path class="st9" d="M2612.9-4.2l-161.2,35.5"/>
		</g>
		<g class="st7">
			<path class="st8" d="M2731.7-78.5L2612.9,0.1L2731.7-78.5z"/>
			<path class="st9" d="M2731.7-78.5L2612.9,0.1"/>
		</g>
		<g class="st7">
			<path class="st8" d="M2820.6-198.5l-88.9,120L2820.6-198.5z"/>
			<path class="st9" d="M2820.6-198.5l-88.9,120"/>
		</g>
		<g class="st7">
			<path class="st8" d="M2877.5-372.2l-59.3,177.1L2877.5-372.2z"/>
			<path class="st9" d="M2877.5-372.2l-59.3,177.1"/>
		</g>
		<g class="st7">
			<path class="st8" d="M2867.7-519.4l9.8,147.1L2867.7-519.4z"/>
			<path class="st9" d="M2867.7-519.4l9.8,147.1"/>
		</g>
		<g class="st7">
			<path class="st8" d="M2795.4-701.1l72.3,181.7L2795.4-701.1z"/>
			<path class="st9" d="M2795.4-701.1l72.3,181.7"/>
		</g>
		<g class="st7">
			<path class="st8" d="M2709.7-806.8l85.7,105.8L2709.7-806.8z"/>
			<path class="st9" d="M2709.7-806.8l85.7,105.8"/>
		</g>
		<g class="st7">
			<path class="st8" d="M2237.1-644.1l-163.7-23.4L2237.1-644.1z"/>
			<path class="st9" d="M2237.1-644.1l-163.7-23.4"/>
		</g>
		<g class="st7">
			<path class="st8" d="M2184.3-789.6l52.8,145.5L2184.3-789.6z"/>
			<path class="st9" d="M2184.3-789.6l52.8,145.5"/>
		</g>
		<g class="st7">
			<path class="st8" d="M2175.9-587.7l-102.5-79.8L2175.9-587.7z"/>
			<path class="st9" d="M2175.9-587.7l-102.5-79.8"/>
		</g>
		<g class="st7">
			<path class="st8" d="M2184.3-789.6l-8.4,201.9L2184.3-789.6z"/>
			<path class="st9" d="M2184.3-789.6l-8.4,201.9"/>
		</g>
		<g class="st7">
			<path class="st8" d="M2237.1-644.1l-61.2,56.4L2237.1-644.1z"/>
			<path class="st9" d="M2237.1-644.1l-61.2,56.4"/>
		</g>
		<g class="st7">
			<path class="st8" d="M2184.3-789.6l177.8,48L2184.3-789.6z"/>
			<path class="st9" d="M2184.3-789.6l177.8,48"/>
		</g>
		<g class="st7">
			<path class="st8" d="M2389.8-587.7l-205.5-201.9L2389.8-587.7z"/>
			<path class="st9" d="M2389.8-587.7l-205.5-201.9"/>
		</g>
		<g class="st7">
			<path class="st8" d="M2175.9-587.7h213.9H2175.9z"/>
			<path class="st9" d="M2175.9-587.7h213.9"/>
		</g>
		<g class="st7">
			<path class="st8" d="M2237.1-644.1l152.7,56.4L2237.1-644.1z"/>
			<path class="st9" d="M2237.1-644.1l152.7,56.4"/>
		</g>
		<g class="st7">
			<path class="st8" d="M2377.9-813.1l-15.9,71.5L2377.9-813.1z"/>
			<path class="st9" d="M2377.9-813.1l-15.9,71.5"/>
		</g>
		<g class="st7">
			<path class="st8" d="M2306.1-858.8l71.8,45.7L2306.1-858.8z"/>
			<path class="st9" d="M2306.1-858.8l71.8,45.7"/>
		</g>
		<g class="st7">
			<path class="st8" d="M2389.8-587.7l-83.7-273.4L2389.8-587.7z"/>
			<path class="st9" d="M2389.8-587.7l-83.7-273.4"/>
		</g>
		<g class="st7">
			<path class="st8" d="M2362.1-741.6l27.7,158.2L2362.1-741.6z"/>
			<path class="st9" d="M2362.1-741.6l27.7,158.2"/>
		</g>
		<g class="st7">
			<path class="st8" d="M2306.1-858.8l56,117.1L2306.1-858.8z"/>
			<path class="st9" d="M2306.1-858.8l56,117.1"/>
		</g>
		<g class="st7">
			<path class="st8" d="M2237.1-644.1l125-97.5L2237.1-644.1z"/>
			<path class="st9" d="M2237.1-644.1l125-97.5"/>
		</g>
		<g class="st7">
			<path class="st8" d="M2389.8-587.7l127.5-157.4L2389.8-587.7z"/>
			<path class="st9" d="M2389.8-587.7l127.5-157.4"/>
		</g>
		<g class="st7">
			<path class="st8" d="M2362.1-741.6l155.2-3.4L2362.1-741.6z"/>
			<path class="st9" d="M2362.1-741.6l155.2-3.4"/>
		</g>
		<g class="st7">
			<path class="st8" d="M2493.8-880.9l-115.9,67.8L2493.8-880.9z"/>
			<path class="st9" d="M2493.8-880.9l-115.9,67.8"/>
		</g>
		<g class="st7">
			<path class="st8" d="M2517.3-745.1l-23.5-135.8L2517.3-745.1z"/>
			<path class="st9" d="M2517.3-745.1l-23.5-135.8"/>
		</g>
		<g class="st7">
			<path class="st8" d="M2709.7-806.8l-69.5,81.7L2709.7-806.8z"/>
			<path class="st9" d="M2709.7-806.8l-69.5,81.7"/>
		</g>
		<g class="st7">
			<path class="st8" d="M2517.3-745.1l127,20L2517.3-745.1z"/>
			<path class="st9" d="M2517.3-745.1l127,20"/>
		</g>
		<g class="st7">
			<path class="st8" d="M2528.5-614.8l-11.1-130.3L2528.5-614.8z"/>
			<path class="st9" d="M2528.5-614.8l-11.1-130.3"/>
		</g>
		<g class="st7">
			<path class="st8" d="M2580-612.8l60.3-112.4L2580-612.8z"/>
			<path class="st9" d="M2580-612.8l60.3-112.4"/>
		</g>
		<g class="st7">
			<path class="st8" d="M2528.5-614.8l111.8-110.4L2528.5-614.8z"/>
			<path class="st9" d="M2528.5-614.8l111.8-110.4"/>
		</g>
		<g class="st7">
			<path class="st8" d="M2443.4-513.6l85-101.1L2443.4-513.6z"/>
			<path class="st9" d="M2443.4-513.6l85-101.1"/>
		</g>
		<g class="st7">
			<path class="st8" d="M2527.5-531.9l1-82.9L2527.5-531.9z"/>
			<path class="st9" d="M2527.5-531.9l1-82.9"/>
		</g>
		<g class="st7">
			<path class="st8" d="M2443.4-513.6l73.9-231.4L2443.4-513.6z"/>
			<path class="st9" d="M2443.4-513.6l73.9-231.4"/>
		</g>
		<g class="st7">
			<path class="st8" d="M2527.5-531.9l-137.7-55.8L2527.5-531.9z"/>
			<path class="st9" d="M2527.5-531.9l-137.7-55.8"/>
		</g>
		<g class="st7">
			<path class="st8" d="M2377.9-813.1l202.9,202.6L2377.9-813.1z"/>
			<path class="st9" d="M2377.9-813.1l202.9,202.6"/>
		</g>
		<g class="st7">
			<path class="st8" d="M2493.8-880.9l146.4,155.8L2493.8-880.9z"/>
			<path class="st9" d="M2493.8-880.9l146.4,155.8"/>
		</g>
		<g class="st7">
			<path class="st8" d="M2795.4-701.1l-155.1-24.1L2795.4-701.1z"/>
			<path class="st9" d="M2795.4-701.1l-155.1-24.1"/>
		</g>
		<g class="st7">
			<path class="st8" d="M2746.3-687.9l-36.6-118.9L2746.3-687.9z"/>
			<path class="st9" d="M2746.3-687.9l-36.6-118.9"/>
		</g>
		<g class="st7">
			<path class="st8" d="M2580-612.8l166.4-75.1L2580-612.8z"/>
			<path class="st9" d="M2580-612.8l166.4-75.1"/>
		</g>
		<g class="st7">
			<path class="st8" d="M2746.3-487.5l49-213.5L2746.3-487.5z"/>
			<path class="st9" d="M2746.3-487.5l49-213.5"/>
		</g>
		<g class="st7">
			<path class="st8" d="M2867.7-519.4l-121.3-168.5L2867.7-519.4z"/>
			<path class="st9" d="M2867.7-519.4l-121.3-168.5"/>
		</g>
		<g class="st7">
			<path class="st8" d="M2527.5-531.9l52.5-80.9L2527.5-531.9z"/>
			<path class="st9" d="M2527.5-531.9l52.5-80.9"/>
		</g>
		<g class="st7">
			<path class="st8" d="M2746.3-487.5L2580-612.8L2746.3-487.5z"/>
			<path class="st9" d="M2746.3-487.5L2580-612.8"/>
		</g>
		<g class="st7">
			<path class="st8" d="M2640.3-725.1l106.1,237.6L2640.3-725.1z"/>
			<path class="st9" d="M2640.3-725.1l106.1,237.6"/>
		</g>
		<g class="st7">
			<path class="st8" d="M2877.5-372.2l-131.1-115.3L2877.5-372.2z"/>
			<path class="st9" d="M2877.5-372.2l-131.1-115.3"/>
		</g>
		<g class="st7">
			<path class="st8" d="M2867.7-519.4L2703-399L2867.7-519.4z"/>
			<path class="st9" d="M2867.7-519.4L2703-399"/>
		</g>
		<g class="st7">
			<path class="st8" d="M2746.3-487.5l121.3-31.8L2746.3-487.5z"/>
			<path class="st9" d="M2746.3-487.5l121.3-31.8"/>
		</g>
		<g class="st7">
			<path class="st8" d="M2580-412.4l-52.5-119.5L2580-412.4z"/>
			<path class="st9" d="M2580-412.4l-52.5-119.5"/>
		</g>
		<g class="st7">
			<path class="st8" d="M2703-399L2580-612.8L2703-399z"/>
			<path class="st9" d="M2703-399L2580-612.8"/>
		</g>
		<g class="st7">
			<path class="st8" d="M2746.3-487.5L2580-412.4L2746.3-487.5z"/>
			<path class="st9" d="M2746.3-487.5L2580-412.4"/>
		</g>
		<g class="st7">
			<path class="st8" d="M2392.5-382.3l187.4-30.1L2392.5-382.3z"/>
			<path class="st9" d="M2392.5-382.3l187.4-30.1"/>
		</g>
		<g class="st7">
			<path class="st8" d="M2258.8-466.9l184.6-46.8L2258.8-466.9z"/>
			<path class="st9" d="M2258.8-466.9l184.6-46.8"/>
		</g>
		<g class="st7">
			<path class="st8" d="M2392.5-382.3l-2.7-205.4L2392.5-382.3z"/>
			<path class="st9" d="M2392.5-382.3l-2.7-205.4"/>
		</g>
		<g class="st7">
			<path class="st8" d="M2443.4-513.6L2580-412.4L2443.4-513.6z"/>
			<path class="st9" d="M2443.4-513.6L2580-412.4"/>
		</g>
		<g class="st7">
			<path class="st8" d="M2527.5-531.9l-134.9,149.6L2527.5-531.9z"/>
			<path class="st9" d="M2527.5-531.9l-134.9,149.6"/>
		</g>
		<g class="st7">
			<path class="st8" d="M2258.8-466.9l91.7,182.7L2258.8-466.9z"/>
			<path class="st9" d="M2258.8-466.9l91.7,182.7"/>
		</g>
		<g class="st7">
			<path class="st8" d="M2527-270l-83.6-243.7L2527-270z"/>
			<path class="st9" d="M2527-270l-83.6-243.7"/>
		</g>
		<g class="st7">
			<path class="st8" d="M2392.5-382.3l-216.6-205.4L2392.5-382.3z"/>
			<path class="st9" d="M2392.5-382.3l-216.6-205.4"/>
		</g>
		<g class="st7">
			<path class="st8" d="M2184.3-368.1l74.5-98.8L2184.3-368.1z"/>
			<path class="st9" d="M2184.3-368.1l74.5-98.8"/>
		</g>
		<g class="st7">
			<path class="st8" d="M2055.6-414l334.2-173.7L2055.6-414z"/>
			<path class="st9" d="M2055.6-414l334.2-173.7"/>
		</g>
		<g class="st7">
			<path class="st8" d="M2184.3-368.1l-110.9-299.5L2184.3-368.1z"/>
			<path class="st9" d="M2184.3-368.1l-110.9-299.5"/>
		</g>
		<g class="st7">
			<path class="st8" d="M2258.8-466.9l-245.3-24.8L2258.8-466.9z"/>
			<path class="st9" d="M2258.8-466.9l-245.3-24.8"/>
		</g>
		<g class="st7">
			<path class="st8" d="M2184.3-368.1l-8.4-219.7L2184.3-368.1z"/>
			<path class="st9" d="M2184.3-368.1l-8.4-219.7"/>
		</g>
		<g class="st7">
			<path class="st8" d="M2033.8-275.2l142.1-312.5L2033.8-275.2z"/>
			<path class="st9" d="M2033.8-275.2l142.1-312.5"/>
		</g>
		<g class="st7">
			<path class="st8" d="M2013.5-491.7l337.1,207.6L2013.5-491.7z"/>
			<path class="st9" d="M2013.5-491.7l337.1,207.6"/>
		</g>
		<g class="st7">
			<path class="st8" d="M2184.3-368.1l208.2-14.3L2184.3-368.1z"/>
			<path class="st9" d="M2184.3-368.1l208.2-14.3"/>
		</g>
		<g class="st7">
			<path class="st8" d="M2218-232.5l40.8-234.3L2218-232.5z"/>
			<path class="st9" d="M2218-232.5l40.8-234.3"/>
		</g>
		<g class="st7">
			<path class="st8" d="M2033.8-275.2l184.2,47L2033.8-275.2z"/>
			<path class="st9" d="M2033.8-275.2l184.2,47"/>
		</g>
		<g class="st7">
			<path class="st8" d="M2184.3-368.1l51,248.9L2184.3-368.1z"/>
			<path class="st9" d="M2184.3-368.1l51,248.9"/>
		</g>
		<g class="st7">
			<path class="st8" d="M2218-228.2L2055.6-414L2218-228.2z"/>
			<path class="st9" d="M2218-228.2L2055.6-414"/>
		</g>
		<g class="st7">
			<path class="st8" d="M2119.1-119.2L2055.6-414L2119.1-119.2z"/>
			<path class="st9" d="M2119.1-119.2L2055.6-414"/>
		</g>
		<g class="st7">
			<path class="st8" d="M2350.6-284.1l-231.5,164.9L2350.6-284.1z"/>
			<path class="st9" d="M2350.6-284.1l-231.5,164.9"/>
		</g>
		<g class="st7">
			<path class="st8" d="M2218-228.2l183.7,166.4L2218-228.2z"/>
			<path class="st9" d="M2218-228.2l183.7,166.4"/>
		</g>
		<g class="st7">
			<path class="st8" d="M2235.3-119.2l166.4-67.8L2235.3-119.2z"/>
			<path class="st9" d="M2235.3-119.2l166.4-67.8"/>
		</g>
		<g class="st7">
			<path class="st8" d="M2350.6-284.1l51.1,222.3L2350.6-284.1z"/>
			<path class="st9" d="M2350.6-284.1l51.1,222.3"/>
		</g>
		<g class="st7">
			<path class="st8" d="M2401.7-187l-9.2-195.3L2401.7-187z"/>
			<path class="st9" d="M2401.7-187l-9.2-195.3"/>
		</g>
		<g class="st7">
			<path class="st8" d="M2350.6-284.1L2527-270L2350.6-284.1z"/>
			<path class="st9" d="M2350.6-284.1L2527-270"/>
		</g>
		<g class="st7">
			<path class="st8" d="M2283.3,0.1l-24.5-467L2283.3,0.1z"/>
			<path class="st9" d="M2283.3,0.1l-24.5-467"/>
		</g>
		<g class="st7">
			<path class="st8" d="M2235.3-119.2l216.4,150.5L2235.3-119.2z"/>
			<path class="st9" d="M2235.3-119.2l216.4,150.5"/>
		</g>
		<g class="st7">
			<path class="st8" d="M2401.7-61.8l50,93.1L2401.7-61.8z"/>
			<path class="st9" d="M2401.7-61.8l50,93.1"/>
		</g>
		<g class="st7">
			<path class="st8" d="M2520.5-36.8l-68.8,68.1L2520.5-36.8z"/>
			<path class="st9" d="M2520.5-36.8l-68.8,68.1"/>
		</g>
		<g class="st7">
			<path class="st8" d="M2612.9-4.2l-92.3-32.6L2612.9-4.2z"/>
			<path class="st9" d="M2612.9-4.2l-92.3-32.6"/>
		</g>
		<g class="st7">
			<path class="st8" d="M2401.7-61.8L2639.4-187L2401.7-61.8z"/>
			<path class="st9" d="M2401.7-61.8L2639.4-187"/>
		</g>
		<g class="st7">
			<path class="st8" d="M2527-139.1V-270V-139.1z"/>
			<path class="st9" d="M2527-139.1V-270"/>
		</g>
		<g class="st7">
			<path class="st8" d="M2401.7-187h237.7H2401.7z"/>
			<path class="st9" d="M2401.7-187h237.7"/>
		</g>
		<g class="st7">
			<path class="st8" d="M2520.5-36.8l6.4-102.4L2520.5-36.8z"/>
			<path class="st9" d="M2520.5-36.8l6.4-102.4"/>
		</g>
		<g class="st7">
			<path class="st8" d="M2401.7-187L2612.9-4.2L2401.7-187z"/>
			<path class="st9" d="M2401.7-187L2612.9-4.2"/>
		</g>
		<g class="st7">
			<path class="st8" d="M2527-139.1l-291.7,20L2527-139.1z"/>
			<path class="st9" d="M2527-139.1l-291.7,20"/>
		</g>
		<g class="st7">
			<path class="st8" d="M2527-270l231.3-42.3L2527-270z"/>
			<path class="st9" d="M2527-270l231.3-42.3"/>
		</g>
		<g class="st7">
			<path class="st8" d="M2651-307.9L2639.4-187L2651-307.9z"/>
			<path class="st9" d="M2651-307.9L2639.4-187"/>
		</g>
		<g class="st7">
			<path class="st8" d="M2612.9-4.2l145.4-308.1L2612.9-4.2z"/>
			<path class="st9" d="M2612.9-4.2l145.4-308.1"/>
		</g>
		<g class="st7">
			<path class="st8" d="M2580-412.4l59.4,225.4L2580-412.4z"/>
			<path class="st9" d="M2580-412.4l59.4,225.4"/>
		</g>
		<g class="st7">
			<path class="st8" d="M2520.5-36.8L2639.4-187L2520.5-36.8z"/>
			<path class="st9" d="M2520.5-36.8L2639.4-187"/>
		</g>
		<g class="st7">
			<path class="st8" d="M2731.7-78.5l26.5-233.7L2731.7-78.5z"/>
			<path class="st9" d="M2731.7-78.5l26.5-233.7"/>
		</g>
		<g class="st7">
			<path class="st8" d="M2820.6-198.5L2639.4-187L2820.6-198.5z"/>
			<path class="st9" d="M2820.6-198.5L2639.4-187"/>
		</g>
		<g class="st7">
			<path class="st8" d="M2651-307.9l80.7,229.4L2651-307.9z"/>
			<path class="st9" d="M2651-307.9l80.7,229.4"/>
		</g>
		<g class="st7">
			<path class="st8" d="M2580-412.4l178.3,100.2L2580-412.4z"/>
			<path class="st9" d="M2580-412.4l178.3,100.2"/>
		</g>
		<g class="st7">
			<path class="st8" d="M2651-307.9l52-91L2651-307.9z"/>
			<path class="st9" d="M2651-307.9l52-91"/>
		</g>
		<g class="st7">
			<path class="st8" d="M2746.3-487.5l11.9,175.3L2746.3-487.5z"/>
			<path class="st9" d="M2746.3-487.5l11.9,175.3"/>
		</g>
		<g class="st7">
			<path class="st8" d="M2877.5-372.2l-484.9-10.1L2877.5-372.2z"/>
			<path class="st9" d="M2877.5-372.2l-484.9-10.1"/>
		</g>
		<g class="st7">
			<path class="st8" d="M2820.6-198.5l-62.4-113.7L2820.6-198.5z"/>
			<path class="st9" d="M2820.6-198.5l-62.4-113.7"/>
		</g>
		<g class="st7">
			<path class="st8" d="M2877.5-372.2l-119.2,60L2877.5-372.2z"/>
			<path class="st9" d="M2877.5-372.2l-119.2,60"/>
		</g>
		<g class="st7">
			<path class="st8" d="M2350.6-284.1L2580-412.4L2350.6-284.1z"/>
			<path class="st9" d="M2350.6-284.1L2580-412.4"/>
		</g>
	</g>
</g>
<path class="st0" d="M2083.4-536v200.5c0,1.1-0.9,1.9-1.9,1.9h-29.4c-1.1,0-1.9-0.9-1.9-1.9v-128.9c0-2.6,0.1-5.2,0.2-8
	c0.1-2-2.6-2.8-3.6-1l-57,107c-2.9,5.5-7.3,8.3-13.3,8.3h-5.3c-6,0-10.4-2.8-13.3-8.3l-57.6-107.4c-1-1.8-3.7-1-3.6,1
	c0,0,0,0.1,0,0.1c0.2,3,0.3,5.7,0.3,8.3v128.9c0,1.1-0.9,1.9-1.9,1.9h-29.4c-1.1,0-1.9-0.9-1.9-1.9v-198.6c0-1.1,0.9-1.9,1.9-1.9
	h26.5c1.7,0,3.1,0,4.3,0.1c1.2,0.1,2.3,0.3,3.2,0.7c1,0.4,1.9,1,2.7,1.8c0.8,0.8,1.6,2,2.4,3.4l60.6,112.4c1.6,3,3,6.1,4.3,9.2
	c0.8,1.8,1.5,3.5,2.3,5.4c0.6,1.6,2.9,1.6,3.5,0c0.7-1.8,1.5-3.7,2.3-5.5c1.4-3.3,2.9-6.4,4.5-9.4l59.8-112.1
	c0.7-1.4,1.5-2.5,2.4-3.4c0.8-0.8,1.7-1.4,2.7-1.8c1.1-0.4,2.2-0.6,3.4-0.7c1.2-0.1,2.7-0.1,4.3-0.1L2083.4-536L2083.4-536z
	 M2235.5-410l-24.6-67.3c-1.2-3-2.5-6.5-3.8-10.6c-0.7-2.2-1.4-4.4-2-6.7c-0.5-1.8-3.1-1.8-3.7,0c-0.6,2.3-1.3,4.5-2,6.8
	c-1.3,4.1-2.6,7.7-3.8,10.8l-23.6,64.5c-0.5,1.2,0.5,2.6,1.8,2.6H2235.5L2235.5-410z M2301-336.2c0.5,1.3-0.4,2.6-1.8,2.6h-26.3
	c-3.3,0-5.9-0.8-8-2.4c-2-1.6-3.6-3.8-4.6-6.2l-14.7-40c-0.3-0.8-1-1.3-1.8-1.3h-81.2c-0.8,0-1.5,0.5-1.8,1.3l-14.7,40
	c-0.7,2.1-2.2,4.1-4.3,5.9c-2.1,1.8-4.8,2.7-8,2.7h-26.6c-1.3,0-2.3-1.4-1.8-2.6l78.2-198.6c0.3-0.7,1-1.2,1.8-1.2h35.8
	c0.8,0,1.5,0.5,1.8,1.2L2301-336.2z M2483.8-433.2v79c0,0.6-0.3,1.2-0.8,1.6c-10,7.3-20.7,12.6-32.1,16.1c-11.6,3.5-24,5.2-37.2,5.2
	c-16.5,0-31.5-2.6-44.9-7.7c-13.3-5.1-24.8-12.3-34.3-21.4c-9.4-9.1-16.7-20.1-21.8-32.8s-7.7-26.6-7.7-41.6
	c0-15.2,2.5-29.2,7.4-41.9s11.9-23.6,21-32.8c9.1-9.1,20.2-16.2,33.2-21.3c13-5,27.5-7.6,43.7-7.6c8.2,0,15.9,0.7,23,2
	c7.2,1.3,13.8,3.1,19.9,5.5c6.2,2.2,11.8,5,16.8,8.3c4.6,3,8.8,6.2,12.7,9.7c0.7,0.6,0.8,1.7,0.3,2.4l-9.9,15.7
	c-1.7,2.7-3.9,4.4-6.6,5c-2.7,0.6-5.6-0.1-8.8-2.1l-9.2-5.3c-3.1-1.8-6.5-3.3-10.4-4.6c-3.7-1.3-8-2.4-12.7-3.2
	c-4.7-0.8-10.1-1.3-16.2-1.3c-10,0-19,1.7-27.2,5c-8,3.4-14.9,8.2-20.6,14.4c-5.7,6.3-10.1,13.8-13.2,22.5
	c-3.1,8.8-4.6,18.6-4.6,29.4c0,11.6,1.6,21.9,4.9,31.1c3.4,9.1,8,16.8,14,23.1c6.1,6.3,13.3,11.1,21.8,14.4c8.5,3.3,18,4.9,28.4,4.9
	c7.5,0,14.1-0.8,20-2.4c5.5-1.5,10.9-3.5,16.1-5.9c0.7-0.3,1.1-1,1.1-1.7v-33.6c0-1.1-0.9-1.9-1.9-1.9h-23.6c-2.4,0-4.3-0.7-5.7-2
	c-1.3-1.4-2-3.1-2-5v-19.4c0-1.1,0.9-1.9,1.9-1.9h63.4C2483-435.1,2483.8-434.2,2483.8-433.2z M2690.8-536v200.5
	c0,1.1-0.9,1.9-1.9,1.9h-17.4c-2.9,0-5.4-0.5-7.5-1.4c-0.1,0-0.1-0.1-0.2-0.1c-1.9-1-3.8-2.7-5.6-5l-101.8-130
	c-1.2-1.5-3.5-0.6-3.4,1.3c0.2,3.8,0.4,7.4,0.4,10.8v122.4c0,1.1-0.9,1.9-1.9,1.9H2522c-1.1,0-1.9-0.9-1.9-1.9v-198.6
	c0-1.1,0.9-1.9,1.9-1.9h17.8c1.6,0,2.9,0.1,4.1,0.3c1.2,0.1,2.2,0.4,3.1,0.8c0.9,0.4,1.8,1,2.7,1.8c0.8,0.7,1.8,1.8,2.8,3.1
	l102.2,130.6c1.2,1.5,3.5,0.6,3.4-1.3c-0.1-1.1-0.1-2.3-0.2-3.4c-0.2-3.2-0.3-6.1-0.3-8.8v-121.2c0-1.1,0.9-1.9,1.9-1.9H2690.8
	L2690.8-536z M2817.3-364c7.3,0,13.8-1.2,19.5-3.6c5.8-2.4,10.6-5.8,14.6-10.2c3.9-4.4,6.9-9.7,9-16c2.1-6.3,3.2-13.3,3.2-21v-119.3
	c0-1.1,0.9-1.9,1.9-1.9h33.8c1.1,0,1.9,0.9,1.9,1.9v119.3c0,12-2,23.2-5.9,33.5c-3.8,10.2-9.4,19-16.7,26.5
	c-7.2,7.4-16,13.2-26.3,17.4c-10.4,4.1-22,6.2-35,6.2c-13.1,0-24.8-2.1-35.1-6.2c-10.4-4.2-19.2-10-26.5-17.4
	c-7.2-7.5-12.7-16.3-16.7-26.5c-3.8-10.3-5.7-21.4-5.7-33.5v-119.3c0-1.1,0.9-1.9,1.9-1.9h33.8c1.1,0,1.9,0.9,1.9,1.9v119.2
	c0,7.7,1,14.7,3.1,21c2.1,6.3,5.2,11.6,9.1,16.1c4,4.4,8.9,7.8,14.6,10.2C2803.5-365.2,2810-364,2817.3-364L2817.3-364z
	 M3051.4-499.2c-1.1,2-2.3,3.4-3.6,4.3c-1.2,0.8-2.8,1.3-4.6,1.3c-2,0-4.1-0.7-6.4-2.1c-2.2-1.5-4.9-3.1-8.1-4.9
	c-3.2-1.8-6.9-3.4-11.2-4.8c-4.2-1.5-9.2-2.2-15-2.2c-5.2,0-9.8,0.7-13.7,2c-3.9,1.2-7.2,2.9-9.9,5.2c-2.6,2.2-4.6,5-5.9,8.1
	c-1.3,3.1-2,6.5-2,10.2c0,4.8,1.3,8.7,3.9,11.9c2.7,3.2,6.3,5.9,10.6,8.1c4.4,2.2,9.4,4.2,15,6c5.6,1.8,11.3,3.7,17.2,5.7
	c5.9,2,11.6,4.3,17.2,7c5.6,2.6,10.6,6,15,10.1c4.4,4,7.9,9,10.5,14.8c2.7,5.9,4.1,13,4.1,21.4c0,9.1-1.6,17.7-4.8,25.8
	c-3.1,7.9-7.6,14.9-13.7,20.9c-6,5.9-13.3,10.5-22,14c-8.7,3.4-18.6,5-29.8,5c-6.4,0-12.8-0.7-19-2c-6.2-1.2-12.2-3-18.1-5.3
	c-5.6-2.3-11-5.1-16.1-8.4c-4.6-3-8.7-6.3-12.4-9.9c-0.6-0.6-0.7-1.6-0.3-2.4l10.3-16.8c0.9-1.3,2.2-2.4,3.6-3.2
	c1.5-0.9,3.1-1.4,4.8-1.4c2.3,0,4.9,1,7.6,2.9c2.7,1.9,5.9,4,9.7,6.3c3.7,2.3,8.1,4.5,13,6.4c5,1.9,11.1,2.8,18.1,2.8
	c10.7,0,19-2.5,24.9-7.6c5.9-5.1,8.8-12.5,8.8-22c0-5.3-1.3-9.7-4.1-13c-2.6-3.4-6.1-6.2-10.5-8.4c-4.4-2.3-9.4-4.3-15-5.9
	c-5.7-1.6-11.4-3.4-17.1-5.2c-5.8-1.9-11.5-4.1-17.1-6.7c-5.6-2.6-10.6-6-15-10.2c-4.4-4.2-7.9-9.4-10.6-15.7
	c-2.6-6.3-3.9-14.1-3.9-23.4c0-7.4,1.4-14.6,4.3-21.6c3-7,7.3-13.2,12.9-18.6c5.6-5.4,12.5-9.8,20.7-13c8.2-3.3,17.6-4.9,28.3-4.9
	c11.9,0,23,1.9,33,5.6c9.6,3.5,17.8,8.4,24.7,14.7c0.6,0.6,0.8,1.5,0.4,2.3L3051.4-499.2L3051.4-499.2z"/>
<image style="overflow:visible;" width="350" height="214" xlink:href="../../../../../logo.png"  transform="matrix(2.0002 0 0 2.169 2132.7402 1855.699)">
</image>
<image style="overflow:visible;" width="1160" height="1160" xlink:href="../../../../../qr-code.png"  transform="matrix(0.881 0 0 0.881 1934.4847 383.168)">
</image>
</svg>
