<svg xmlns="http://www.w3.org/2000/svg" width="1337" height="1036" fill="none"><g clip-path="url(#a)"><path fill="#fff" stroke="#fff" stroke-miterlimit="10" stroke-width="8" d="M448.91 303.41a4.3 4.3 0 1 0 0-8.6 4.3 4.3 0 0 0 0 8.6Zm22.88 177.25a4.3 4.3 0 1 0 0-8.6 4.3 4.3 0 0 0 0 8.6Zm272.35-278.21a4.3 4.3 0 1 0 0-8.6 4.3 4.3 0 0 0 0 8.6ZM612.66 565.19a4.3 4.3 0 1 0 0-8.6 4.3 4.3 0 0 0 0 8.6Zm197.48-30.07a4.3 4.3 0 1 0 0-8.6 4.3 4.3 0 0 0 0 8.6Zm0-200.35a4.3 4.3 0 1 0 0-8.6 4.3 4.3 0 0 0 0 8.6Zm175.3 125.22a4.3 4.3 0 1 0 0-8.6 4.3 4.3 0 0 0 0 8.6Zm0-200.35a4.3 4.3 0 1 0 0-8.6 4.3 4.3 0 0 0 0 8.6ZM597.27 134.42a4.3 4.3 0 1 0 0-8.6 4.3 4.3 0 0 0 0 8.6ZM384.4 359.82a4.3 4.3 0 1 0 0-8.6 4.3 4.3 0 0 0 0 8.6Zm225.39 0a4.3 4.3 0 1 0 0-8.6 4.3 4.3 0 0 0 0 8.6Zm262.96 400.69a4.3 4.3 0 1 0 0-8.6 4.3 4.3 0 0 0 0 8.6Zm125.22-125.22c2.37 0 4.3-1.925 4.3-4.3s-1.93-4.3-4.3-4.3a4.3 4.3 0 1 0 0 8.6ZM622.31 760.51a4.3 4.3 0 1 0 0-8.6 4.3 4.3 0 0 0 0 8.6Zm0 125.22a4.3 4.3 0 1 0 0-8.6 4.3 4.3 0 0 0 0 8.6Zm125.22 25.04a4.3 4.3 0 1 0 0-8.6 4.3 4.3 0 0 0 0 8.6ZM428.75 719.29a4.3 4.3 0 1 0 0-8.6 4.3 4.3 0 0 0 0 8.6ZM257.62 533.55a4.3 4.3 0 1 0 0-8.6 4.3 4.3 0 0 0 0 8.6Zm135.65 45.92a4.3 4.3 0 1 0 0-8.6 4.3 4.3 0 0 0 0 8.6Zm53.74 248.87a4.3 4.3 0 1 0 0-8.6 4.3 4.3 0 0 0 0 8.6Zm307.3-150.79a4.3 4.3 0 1 0 0-8.6 4.3 4.3 0 0 0 0 8.6Zm.53-261.91a4.3 4.3 0 1 0 0-8.6 4.3 4.3 0 0 0 0 8.6ZM580.57 205.9a4.3 4.3 0 1 0 0-8.6 4.3 4.3 0 0 0 0 8.6Zm-187.3-48a4.3 4.3 0 1 0 0-8.6 4.3 4.3 0 0 0 0 8.6Zm128.35-71.48a4.3 4.3 0 1 0 0-8.6 4.3 4.3 0 0 0 0 8.6ZM719.36 66.6a4.3 4.3 0 1 0 0-8.6 4.3 4.3 0 0 0 0 8.6Zm227.48 74.09a4.3 4.3 0 1 0 0-8.6 4.3 4.3 0 0 0 0 8.6Zm90.26 105.78c2.37 0 4.3-1.925 4.3-4.3s-1.93-4.3-4.3-4.3-4.3 1.925-4.3 4.3 1.93 4.3 4.3 4.3Zm76.17 181.69c2.37 0 4.3-1.925 4.3-4.3s-1.93-4.3-4.3-4.3-4.3 1.925-4.3 4.3 1.93 4.3 4.3 4.3Zm10.32 147.13c2.37 0 4.3-1.925 4.3-4.3s-1.93-4.3-4.3-4.3-4.3 1.925-4.3 4.3 1.93 4.3 4.3 4.3Zm-59.88 173.74c2.37 0 4.3-1.925 4.3-4.3s-1.93-4.3-4.3-4.3-4.3 1.925-4.3 4.3 1.93 4.3 4.3 4.3Zm-93.67 120a4.3 4.3 0 1 0 0-8.6 4.3 4.3 0 0 0 0 8.6Zm-125.22 74.34a4.3 4.3 0 1 0 0-8.6 4.3 4.3 0 0 0 0 8.6Zm-169.81 35.5a4.3 4.3 0 1 0 0-8.6 4.3 4.3 0 0 0 0 8.6Zm-177.39-31.2a4.3 4.3 0 1 0 0-8.6 4.3 4.3 0 0 0 0 8.6ZM324.53 828.34a4.3 4.3 0 1 0 0-8.6 4.3 4.3 0 0 0 0 8.6Zm-89.87-156a4.3 4.3 0 1 0 0-8.6 4.3 4.3 0 0 0 0 8.6ZM213.3 455.82a4.3 4.3 0 1 0 0-8.6 4.3 4.3 0 0 0 0 8.6Zm63.1-175.83a4.3 4.3 0 1 0 0-8.6 4.3 4.3 0 0 0 0 8.6Zm479.48 52.76a4.3 4.3 0 1 0 0-8.6 4.3 4.3 0 0 0 0 8.6ZM568.44 663.4a4.3 4.3 0 1 0 0-8.6 4.3 4.3 0 0 0 0 8.6Zm97.84-229.5a4.3 4.3 0 1 0 0-8.6 4.3 4.3 0 0 0 0 8.6Zm207.38-211.5a4.3 4.3 0 1 0 0-8.6 4.3 4.3 0 0 0 0 8.6Zm66.13 326.15a4.3 4.3 0 1 0 0-8.6 4.3 4.3 0 0 0 0 8.6Zm-54.78 91.04a4.3 4.3 0 1 0 0-8.6 4.3 4.3 0 0 0 0 8.6Zm-130.7 168.79a4.3 4.3 0 1 0 0-8.6 4.3 4.3 0 0 0 0 8.6Z"/><g opacity=".5"><path fill="#fff" d="m719.36 62.3 227.48 74.09L719.36 62.3Z"/><path stroke="#fff" stroke-dasharray="12 12" stroke-miterlimit="10" stroke-width="2" d="m719.36 62.3 227.48 74.09"/></g><g opacity=".5"><path fill="#fff" d="M521.62 82.12 719.36 62.3 521.62 82.12Z"/><path stroke="#fff" stroke-dasharray="12 12" stroke-miterlimit="10" stroke-width="2" d="M521.62 82.12 719.36 62.3"/></g><g opacity=".5"><path fill="#fff" d="m393.27 153.6 128.35-71.48-128.35 71.48Z"/><path stroke="#fff" stroke-dasharray="12 12" stroke-miterlimit="10" stroke-width="2" d="m393.27 153.6 128.35-71.48"/></g><g opacity=".5"><path fill="#fff" d="M276.4 275.69 393.27 153.6 276.4 275.69Z"/><path stroke="#fff" stroke-dasharray="12 12" stroke-miterlimit="10" stroke-width="2" d="M276.4 275.69 393.27 153.6"/></g><g opacity=".5"><path fill="#fff" d="m213.3 451.52 63.1-175.83-63.1 175.83Z"/><path stroke="#fff" stroke-dasharray="12 12" stroke-miterlimit="10" stroke-width="2" d="m213.3 451.52 63.1-175.83"/></g><g opacity=".5"><path fill="#fff" d="M234.66 668.04 213.3 451.52l21.36 216.52Z"/><path stroke="#fff" stroke-dasharray="12 12" stroke-miterlimit="10" stroke-width="2" d="M234.66 668.04 213.3 451.52"/></g><g opacity=".5"><path fill="#fff" d="m324.53 824.04-89.87-156 89.87 156Z"/><path stroke="#fff" stroke-dasharray="12 12" stroke-miterlimit="10" stroke-width="2" d="m324.53 824.04-89.87-156"/></g><g opacity=".5"><path fill="#fff" d="M497.62 943.37 324.53 824.04l173.09 119.33Z"/><path stroke="#fff" stroke-dasharray="12 12" stroke-miterlimit="10" stroke-width="2" d="M497.62 943.37 324.53 824.04"/></g><g opacity=".5"><path fill="#fff" d="m675.01 974.57-181.69-31.2 181.69 31.2Z"/><path stroke="#fff" stroke-dasharray="12 12" stroke-miterlimit="10" stroke-width="2" d="m675.01 974.57-181.69-31.2"/></g><g opacity=".5"><path fill="#fff" d="m844.82 939.07-169.81 35.5 169.81-35.5Z"/><path stroke="#fff" stroke-dasharray="12 12" stroke-miterlimit="10" stroke-width="2" d="m844.82 939.07-169.81 35.5"/></g><g opacity=".5"><path fill="#fff" d="m970.04 864.73-125.22 78.64 125.22-78.64Z"/><path stroke="#fff" stroke-dasharray="12 12" stroke-miterlimit="10" stroke-width="2" d="m970.04 864.73-125.22 78.64"/></g><g opacity=".5"><path fill="#fff" d="m1063.71 744.73-93.67 120 93.67-120Z"/><path stroke="#fff" stroke-dasharray="12 12" stroke-miterlimit="10" stroke-width="2" d="m1063.71 744.73-93.67 120"/></g><g opacity=".5"><path fill="#fff" d="m1123.59 570.99-62.53 177.13 62.53-177.13Z"/><path stroke="#fff" stroke-dasharray="12 12" stroke-miterlimit="10" stroke-width="2" d="m1123.59 570.99-62.53 177.13"/></g><g opacity=".5"><path fill="#fff" d="m1113.27 423.86 10.32 147.13-10.32-147.13Z"/><path stroke="#fff" stroke-dasharray="12 12" stroke-miterlimit="10" stroke-width="2" d="m1113.27 423.86 10.32 147.13"/></g><g opacity=".5"><path fill="#fff" d="m1037.1 242.17 76.17 181.69-76.17-181.69Z"/><path stroke="#fff" stroke-dasharray="12 12" stroke-miterlimit="10" stroke-width="2" d="m1037.1 242.17 76.17 181.69"/></g><g opacity=".5"><path fill="#fff" d="m946.84 136.39 90.26 105.78-90.26-105.78Z"/><path stroke="#fff" stroke-dasharray="12 12" stroke-miterlimit="10" stroke-width="2" d="m946.84 136.39 90.26 105.78"/></g><g opacity=".5"><path fill="#fff" d="M448.91 299.11 276.4 275.69l172.51 23.42Z"/><path stroke="#fff" stroke-dasharray="12 12" stroke-miterlimit="10" stroke-width="2" d="M448.91 299.11 276.4 275.69"/></g><g opacity=".5"><path fill="#fff" d="m393.27 153.6 55.64 145.51-55.64-145.51Z"/><path stroke="#fff" stroke-dasharray="12 12" stroke-miterlimit="10" stroke-width="2" d="m393.27 153.6 55.64 145.51"/></g><g opacity=".5"><path fill="#fff" d="m384.4 355.52-108-79.83 108 79.83Z"/><path stroke="#fff" stroke-dasharray="12 12" stroke-miterlimit="10" stroke-width="2" d="m384.4 355.52-108-79.83"/></g><g opacity=".5"><path fill="#fff" d="m393.27 153.6-8.87 201.92 8.87-201.92Z"/><path stroke="#fff" stroke-dasharray="12 12" stroke-miterlimit="10" stroke-width="2" d="m393.27 153.6-8.87 201.92"/></g><g opacity=".5"><path fill="#fff" d="m448.91 299.11-64.51 56.41 64.51-56.41Z"/><path stroke="#fff" stroke-dasharray="12 12" stroke-miterlimit="10" stroke-width="2" d="m448.91 299.11-64.51 56.41"/></g><g opacity=".5"><path fill="#fff" d="m393.27 153.6 187.3 48-187.3-48Z"/><path stroke="#fff" stroke-dasharray="12 12" stroke-miterlimit="10" stroke-width="2" d="m393.27 153.6 187.3 48"/></g><g opacity=".5"><path fill="#fff" d="M609.79 355.52 393.27 153.6l216.52 201.92Z"/><path stroke="#fff" stroke-dasharray="12 12" stroke-miterlimit="10" stroke-width="2" d="M609.79 355.52 393.27 153.6"/></g><g opacity=".5"><path fill="#fff" d="M384.4 355.52h225.39H384.4Z"/><path stroke="#fff" stroke-dasharray="12 12" stroke-miterlimit="10" stroke-width="2" d="M384.4 355.52h225.39"/></g><g opacity=".5"><path fill="#fff" d="m448.91 299.11 160.88 56.41-160.88-56.41Z"/><path stroke="#fff" stroke-dasharray="12 12" stroke-miterlimit="10" stroke-width="2" d="m448.91 299.11 160.88 56.41"/></g><g opacity=".5"><path fill="#fff" d="m597.27 130.12-16.7 71.48 16.7-71.48Z"/><path stroke="#fff" stroke-dasharray="12 12" stroke-miterlimit="10" stroke-width="2" d="m597.27 130.12-16.7 71.48"/></g><g opacity=".5"><path fill="#fff" d="m521.62 84.47 75.65 45.65-75.65-45.65Z"/><path stroke="#fff" stroke-dasharray="12 12" stroke-miterlimit="10" stroke-width="2" d="m521.62 84.47 75.65 45.65"/></g><g opacity=".5"><path fill="#fff" d="m609.79 355.52-88.17-273.4 88.17 273.4Z"/><path stroke="#fff" stroke-dasharray="12 12" stroke-miterlimit="10" stroke-width="2" d="m609.79 355.52-88.17-273.4"/></g><g opacity=".5"><path fill="#fff" d="m580.57 201.6 29.22 158.21-29.22-158.21Z"/><path stroke="#fff" stroke-dasharray="12 12" stroke-miterlimit="10" stroke-width="2" d="m580.57 201.6 29.22 158.21"/></g><g opacity=".5"><path fill="#fff" d="m521.62 84.47 58.95 117.13-58.95-117.13Z"/><path stroke="#fff" stroke-dasharray="12 12" stroke-miterlimit="10" stroke-width="2" d="m521.62 84.47 58.95 117.13"/></g><g opacity=".5"><path fill="#fff" d="m448.91 299.11 131.66-97.51-131.66 97.51Z"/><path stroke="#fff" stroke-dasharray="12 12" stroke-miterlimit="10" stroke-width="2" d="m448.91 299.11 131.66-97.51"/></g><g opacity=".5"><path fill="#fff" d="m609.79 355.52 134.35-157.37-134.35 157.37Z"/><path stroke="#fff" stroke-dasharray="12 12" stroke-miterlimit="10" stroke-width="2" d="m609.79 355.52 134.35-157.37"/></g><g opacity=".5"><path fill="#fff" d="m580.57 201.6 163.57-3.45-163.57 3.45Z"/><path stroke="#fff" stroke-dasharray="12 12" stroke-miterlimit="10" stroke-width="2" d="m580.57 201.6 163.57-3.45"/></g><g opacity=".5"><path fill="#fff" d="m719.36 62.3-122.09 67.82L719.36 62.3Z"/><path stroke="#fff" stroke-dasharray="12 12" stroke-miterlimit="10" stroke-width="2" d="m719.36 62.3-122.09 67.82"/></g><g opacity=".5"><path fill="#fff" d="M744.14 198.15 719.36 62.3l24.78 135.85Z"/><path stroke="#fff" stroke-dasharray="12 12" stroke-miterlimit="10" stroke-width="2" d="M744.14 198.15 719.36 62.3"/></g><g opacity=".5"><path fill="#fff" d="m946.84 136.39-73.18 81.71 73.18-81.71Z"/><path stroke="#fff" stroke-dasharray="12 12" stroke-miterlimit="10" stroke-width="2" d="m946.84 136.39-73.18 81.71"/></g><g opacity=".5"><path fill="#fff" d="m744.14 198.15 133.82 19.95-133.82-19.95Z"/><path stroke="#fff" stroke-dasharray="12 12" stroke-miterlimit="10" stroke-width="2" d="m744.14 198.15 133.82 19.95"/></g><g opacity=".5"><path fill="#fff" d="m755.88 328.45-11.74-130.3 11.74 130.3Z"/><path stroke="#fff" stroke-dasharray="12 12" stroke-miterlimit="10" stroke-width="2" d="m755.88 328.45-11.74-130.3"/></g><g opacity=".5"><path fill="#fff" d="m810.14 330.47 63.52-112.37-63.52 112.37Z"/><path stroke="#fff" stroke-dasharray="12 12" stroke-miterlimit="10" stroke-width="2" d="m810.14 330.47 63.52-112.37"/></g><g opacity=".5"><path fill="#fff" d="M755.88 328.45 873.66 218.1 755.88 328.45Z"/><path stroke="#fff" stroke-dasharray="12 12" stroke-miterlimit="10" stroke-width="2" d="M755.88 328.45 873.66 218.1"/></g><g opacity=".5"><path fill="#fff" d="m666.28 429.6 89.6-101.15-89.6 101.15Z"/><path stroke="#fff" stroke-dasharray="12 12" stroke-miterlimit="10" stroke-width="2" d="m666.28 429.6 89.6-101.15"/></g><g opacity=".5"><path fill="#fff" d="m754.84 411.34 1.04-82.89-1.04 82.89Z"/><path stroke="#fff" stroke-dasharray="12 12" stroke-miterlimit="10" stroke-width="2" d="m754.84 411.34 1.04-82.89"/></g><g opacity=".5"><path fill="#fff" d="m666.28 429.6 77.86-231.45-77.86 231.45Z"/><path stroke="#fff" stroke-dasharray="12 12" stroke-miterlimit="10" stroke-width="2" d="m666.28 429.6 77.86-231.45"/></g><g opacity=".5"><path fill="#fff" d="m754.84 411.34-145.05-55.82 145.05 55.82Z"/><path stroke="#fff" stroke-dasharray="12 12" stroke-miterlimit="10" stroke-width="2" d="m754.84 411.34-145.05-55.82"/></g><g opacity=".5"><path fill="#fff" d="m597.27 130.12 213.78 202.63-213.78-202.63Z"/><path stroke="#fff" stroke-dasharray="12 12" stroke-miterlimit="10" stroke-width="2" d="m597.27 130.12 213.78 202.63"/></g><g opacity=".5"><path fill="#fff" d="m719.36 62.3 154.3 155.8-154.3-155.8Z"/><path stroke="#fff" stroke-dasharray="12 12" stroke-miterlimit="10" stroke-width="2" d="m719.36 62.3 154.3 155.8"/></g><g opacity=".5"><path fill="#fff" d="M1037.1 242.17 873.66 218.1l163.44 24.07Z"/><path stroke="#fff" stroke-dasharray="12 12" stroke-miterlimit="10" stroke-width="2" d="M1037.1 242.17 873.66 218.1"/></g><g opacity=".5"><path fill="#fff" d="m985.44 255.34-38.6-118.95 38.6 118.95Z"/><path stroke="#fff" stroke-dasharray="12 12" stroke-miterlimit="10" stroke-width="2" d="m985.44 255.34-38.6-118.95"/></g><g opacity=".5"><path fill="#fff" d="m810.14 330.47 175.3-75.13-175.3 75.13Z"/><path stroke="#fff" stroke-dasharray="12 12" stroke-miterlimit="10" stroke-width="2" d="m810.14 330.47 175.3-75.13"/></g><g opacity=".5"><path fill="#fff" d="m985.44 455.69 51.66-213.52-51.66 213.52Z"/><path stroke="#fff" stroke-dasharray="12 12" stroke-miterlimit="10" stroke-width="2" d="m985.44 455.69 51.66-213.52"/></g><g opacity=".5"><path fill="#fff" d="M1113.27 423.86 985.44 255.34l127.83 168.52Z"/><path stroke="#fff" stroke-dasharray="12 12" stroke-miterlimit="10" stroke-width="2" d="M1113.27 423.86 985.44 255.34"/></g><g opacity=".5"><path fill="#fff" d="m754.84 411.34 55.3-80.87-55.3 80.87Z"/><path stroke="#fff" stroke-dasharray="12 12" stroke-miterlimit="10" stroke-width="2" d="m754.84 411.34 55.3-80.87"/></g><g opacity=".5"><path fill="#fff" d="m985.44 455.69-175.3-125.22 175.3 125.22Z"/><path stroke="#fff" stroke-dasharray="12 12" stroke-miterlimit="10" stroke-width="2" d="m985.44 455.69-175.3-125.22"/></g><g opacity=".5"><path fill="#fff" d="m873.66 218.1 111.78 237.59L873.66 218.1Z"/><path stroke="#fff" stroke-dasharray="12 12" stroke-miterlimit="10" stroke-width="2" d="m873.66 218.1 111.78 237.59"/></g><g opacity=".5"><path fill="#fff" d="m1123.59 570.99-138.15-115.3 138.15 115.3Z"/><path stroke="#fff" stroke-dasharray="12 12" stroke-miterlimit="10" stroke-width="2" d="m1123.59 570.99-138.15-115.3"/></g><g opacity=".5"><path fill="#fff" d="M1113.27 423.86 939.79 544.25l173.48-120.39Z"/><path stroke="#fff" stroke-dasharray="12 12" stroke-miterlimit="10" stroke-width="2" d="M1113.27 423.86 939.79 544.25"/></g><g opacity=".5"><path fill="#fff" d="m985.44 455.69 127.83-31.83-127.83 31.83Z"/><path stroke="#fff" stroke-dasharray="12 12" stroke-miterlimit="10" stroke-width="2" d="m985.44 455.69 127.83-31.83"/></g><g opacity=".5"><path fill="#fff" d="m810.14 530.82-55.3-119.48 55.3 119.48Z"/><path stroke="#fff" stroke-dasharray="12 12" stroke-miterlimit="10" stroke-width="2" d="m810.14 530.82-55.3-119.48"/></g><g opacity=".5"><path fill="#fff" d="M939.79 544.25 810.14 330.47l129.65 213.78Z"/><path stroke="#fff" stroke-dasharray="12 12" stroke-miterlimit="10" stroke-width="2" d="M939.79 544.25 810.14 330.47"/></g><g opacity=".5"><path fill="#fff" d="m985.44 455.69-175.3 75.13 175.3-75.13Z"/><path stroke="#fff" stroke-dasharray="12 12" stroke-miterlimit="10" stroke-width="2" d="m985.44 455.69-175.3 75.13"/></g><g opacity=".5"><path fill="#fff" d="m612.66 560.89 197.48-30.07-197.48 30.07Z"/><path stroke="#fff" stroke-dasharray="12 12" stroke-miterlimit="10" stroke-width="2" d="m612.66 560.89 197.48-30.07"/></g><g opacity=".5"><path fill="#fff" d="m471.79 476.36 194.49-46.76-194.49 46.76Z"/><path stroke="#fff" stroke-dasharray="12 12" stroke-miterlimit="10" stroke-width="2" d="m471.79 476.36 194.49-46.76"/></g><g opacity=".5"><path fill="#fff" d="m612.66 560.89-2.87-205.37 2.87 205.37Z"/><path stroke="#fff" stroke-dasharray="12 12" stroke-miterlimit="10" stroke-width="2" d="m612.66 560.89-2.87-205.37"/></g><g opacity=".5"><path fill="#fff" d="m666.28 429.6 143.86 101.22L666.28 429.6Z"/><path stroke="#fff" stroke-dasharray="12 12" stroke-miterlimit="10" stroke-width="2" d="m666.28 429.6 143.86 101.22"/></g><g opacity=".5"><path fill="#fff" d="M754.84 411.34 612.66 560.89l142.18-149.55Z"/><path stroke="#fff" stroke-dasharray="12 12" stroke-miterlimit="10" stroke-width="2" d="M754.84 411.34 612.66 560.89"/></g><g opacity=".5"><path fill="#fff" d="m471.79 476.36 96.65 182.74-96.65-182.74Z"/><path stroke="#fff" stroke-dasharray="12 12" stroke-miterlimit="10" stroke-width="2" d="m471.79 476.36 96.65 182.74"/></g><g opacity=".5"><path fill="#fff" d="M754.31 673.25 666.28 429.6l88.03 243.65Z"/><path stroke="#fff" stroke-dasharray="12 12" stroke-miterlimit="10" stroke-width="2" d="M754.31 673.25 666.28 429.6"/></g><g opacity=".5"><path fill="#fff" d="M612.66 560.89 384.4 355.52l228.26 205.37Z"/><path stroke="#fff" stroke-dasharray="12 12" stroke-miterlimit="10" stroke-width="2" d="M612.66 560.89 384.4 355.52"/></g><g opacity=".5"><path fill="#fff" d="m393.27 575.17 78.52-98.81-78.52 98.81Z"/><path stroke="#fff" stroke-dasharray="12 12" stroke-miterlimit="10" stroke-width="2" d="m393.27 575.17 78.52-98.81"/></g><g opacity=".5"><path fill="#fff" d="m257.62 529.25 352.17-173.73-352.17 173.73Z"/><path stroke="#fff" stroke-dasharray="12 12" stroke-miterlimit="10" stroke-width="2" d="m257.62 529.25 352.17-173.73"/></g><g opacity=".5"><path fill="#fff" d="M393.27 575.17 276.4 275.69l116.87 299.48Z"/><path stroke="#fff" stroke-dasharray="12 12" stroke-miterlimit="10" stroke-width="2" d="M393.27 575.17 276.4 275.69"/></g><g opacity=".5"><path fill="#fff" d="M471.79 476.36 213.3 451.52l258.49 24.84Z"/><path stroke="#fff" stroke-dasharray="12 12" stroke-miterlimit="10" stroke-width="2" d="M471.79 476.36 213.3 451.52"/></g><g opacity=".5"><path fill="#fff" d="m393.27 575.17-8.87-219.65 8.87 219.65Z"/><path stroke="#fff" stroke-dasharray="12 12" stroke-miterlimit="10" stroke-width="2" d="m393.27 575.17-8.87-219.65"/></g><g opacity=".5"><path fill="#fff" d="M234.66 668.04 384.4 355.52 234.66 668.04Z"/><path stroke="#fff" stroke-dasharray="12 12" stroke-miterlimit="10" stroke-width="2" d="M234.66 668.04 384.4 355.52"/></g><g opacity=".5"><path fill="#fff" d="M213.3 451.52 568.44 659.1 213.3 451.52Z"/><path stroke="#fff" stroke-dasharray="12 12" stroke-miterlimit="10" stroke-width="2" d="M213.3 451.52 568.44 659.1"/></g><g opacity=".5"><path fill="#fff" d="m393.27 575.17 219.39-14.28-219.39 14.28Z"/><path stroke="#fff" stroke-dasharray="12 12" stroke-miterlimit="10" stroke-width="2" d="m393.27 575.17 219.39-14.28"/></g><g opacity=".5"><path fill="#fff" d="m428.75 710.7 43.04-234.34-43.04 234.34Z"/><path stroke="#fff" stroke-dasharray="12 12" stroke-miterlimit="10" stroke-width="2" d="m428.75 710.7 43.04-234.34"/></g><g opacity=".5"><path fill="#fff" d="m234.66 668.04 194.09 46.95-194.09-46.95Z"/><path stroke="#fff" stroke-dasharray="12 12" stroke-miterlimit="10" stroke-width="2" d="m234.66 668.04 194.09 46.95"/></g><g opacity=".5"><path fill="#fff" d="m393.27 575.17 53.74 248.87-53.74-248.87Z"/><path stroke="#fff" stroke-dasharray="12 12" stroke-miterlimit="10" stroke-width="2" d="m393.27 575.17 53.74 248.87"/></g><g opacity=".5"><path fill="#fff" d="M428.75 714.99 257.62 529.25l171.13 185.74Z"/><path stroke="#fff" stroke-dasharray="12 12" stroke-miterlimit="10" stroke-width="2" d="M428.75 714.99 257.62 529.25"/></g><g opacity=".5"><path fill="#fff" d="m324.53 824.04-66.91-294.79 66.91 294.79Z"/><path stroke="#fff" stroke-dasharray="12 12" stroke-miterlimit="10" stroke-width="2" d="m324.53 824.04-66.91-294.79"/></g><g opacity=".5"><path fill="#fff" d="M568.44 659.1 324.53 824.04 568.44 659.1Z"/><path stroke="#fff" stroke-dasharray="12 12" stroke-miterlimit="10" stroke-width="2" d="M568.44 659.1 324.53 824.04"/></g><g opacity=".5"><path fill="#fff" d="m428.75 714.99 193.56 166.44-193.56-166.44Z"/><path stroke="#fff" stroke-dasharray="12 12" stroke-miterlimit="10" stroke-width="2" d="m428.75 714.99 193.56 166.44"/></g><g opacity=".5"><path fill="#fff" d="m447.01 824.04 175.3-67.83-175.3 67.83Z"/><path stroke="#fff" stroke-dasharray="12 12" stroke-miterlimit="10" stroke-width="2" d="m447.01 824.04 175.3-67.83"/></g><g opacity=".5"><path fill="#fff" d="m568.44 659.1 53.87 222.33-53.87-222.33Z"/><path stroke="#fff" stroke-dasharray="12 12" stroke-miterlimit="10" stroke-width="2" d="m568.44 659.1 53.87 222.33"/></g><g opacity=".5"><path fill="#fff" d="m622.31 756.21-9.65-195.32 9.65 195.32Z"/><path stroke="#fff" stroke-dasharray="12 12" stroke-miterlimit="10" stroke-width="2" d="m622.31 756.21-9.65-195.32"/></g><g opacity=".5"><path fill="#fff" d="m568.44 659.1 185.87 14.15-185.87-14.15Z"/><path stroke="#fff" stroke-dasharray="12 12" stroke-miterlimit="10" stroke-width="2" d="m568.44 659.1 185.87 14.15"/></g><g opacity=".5"><path fill="#fff" d="m497.62 943.37-25.83-467.01 25.83 467.01Z"/><path stroke="#fff" stroke-dasharray="12 12" stroke-miterlimit="10" stroke-width="2" d="m497.62 943.37-25.83-467.01"/></g><g opacity=".5"><path fill="#fff" d="m447.01 824.04 228 150.53-228-150.53Z"/><path stroke="#fff" stroke-dasharray="12 12" stroke-miterlimit="10" stroke-width="2" d="m447.01 824.04 228 150.53"/></g><g opacity=".5"><path fill="#fff" d="m622.31 881.43 52.7 93.14-52.7-93.14Z"/><path stroke="#fff" stroke-dasharray="12 12" stroke-miterlimit="10" stroke-width="2" d="m622.31 881.43 52.7 93.14"/></g><g opacity=".5"><path fill="#fff" d="m747.53 906.47-72.52 68.1 72.52-68.1Z"/><path stroke="#fff" stroke-dasharray="12 12" stroke-miterlimit="10" stroke-width="2" d="m747.53 906.47-72.52 68.1"/></g><g opacity=".5"><path fill="#fff" d="m844.82 939.07-97.29-32.6 97.29 32.6Z"/><path stroke="#fff" stroke-dasharray="12 12" stroke-miterlimit="10" stroke-width="2" d="m844.82 939.07-97.29-32.6"/></g><g opacity=".5"><path fill="#fff" d="m622.31 881.43 250.44-125.22-250.44 125.22Z"/><path stroke="#fff" stroke-dasharray="12 12" stroke-miterlimit="10" stroke-width="2" d="m622.31 881.43 250.44-125.22"/></g><g opacity=".5"><path fill="#fff" d="M754.31 804.08V673.25v130.83Z"/><path stroke="#fff" stroke-dasharray="12 12" stroke-miterlimit="10" stroke-width="2" d="M754.31 804.08V673.25"/></g><g opacity=".5"><path fill="#fff" d="M622.31 756.21h250.44-250.44Z"/><path stroke="#fff" stroke-dasharray="12 12" stroke-miterlimit="10" stroke-width="2" d="M622.31 756.21h250.44"/></g><g opacity=".5"><path fill="#fff" d="m747.53 906.47 6.78-102.39-6.78 102.39Z"/><path stroke="#fff" stroke-dasharray="12 12" stroke-miterlimit="10" stroke-width="2" d="m747.53 906.47 6.78-102.39"/></g><g opacity=".5"><path fill="#fff" d="m622.31 756.21 222.51 182.86-222.51-182.86Z"/><path stroke="#fff" stroke-dasharray="12 12" stroke-miterlimit="10" stroke-width="2" d="m622.31 756.21 222.51 182.86"/></g><g opacity=".5"><path fill="#fff" d="m754.31 804.08-307.3 19.96 307.3-19.96Z"/><path stroke="#fff" stroke-dasharray="12 12" stroke-miterlimit="10" stroke-width="2" d="m754.31 804.08-307.3 19.96"/></g><g opacity=".5"><path fill="#fff" d="m754.31 673.25 243.66-42.26-243.66 42.26Z"/><path stroke="#fff" stroke-dasharray="12 12" stroke-miterlimit="10" stroke-width="2" d="m754.31 673.25 243.66-42.26"/></g><g opacity=".5"><path fill="#fff" d="m885.01 635.29-12.26 120.92 12.26-120.92Z"/><path stroke="#fff" stroke-dasharray="12 12" stroke-miterlimit="10" stroke-width="2" d="m885.01 635.29-12.26 120.92"/></g><g opacity=".5"><path fill="#fff" d="m844.82 939.07 153.15-308.08-153.15 308.08Z"/><path stroke="#fff" stroke-dasharray="12 12" stroke-miterlimit="10" stroke-width="2" d="m844.82 939.07 153.15-308.08"/></g><g opacity=".5"><path fill="#fff" d="m810.14 530.82 62.61 225.39-62.61-225.39Z"/><path stroke="#fff" stroke-dasharray="12 12" stroke-miterlimit="10" stroke-width="2" d="m810.14 530.82 62.61 225.39"/></g><g opacity=".5"><path fill="#fff" d="m747.53 906.47 125.22-150.26-125.22 150.26Z"/><path stroke="#fff" stroke-dasharray="12 12" stroke-miterlimit="10" stroke-width="2" d="m747.53 906.47 125.22-150.26"/></g><g opacity=".5"><path fill="#fff" d="m970.04 864.73 27.93-233.74-27.93 233.74Z"/><path stroke="#fff" stroke-dasharray="12 12" stroke-miterlimit="10" stroke-width="2" d="m970.04 864.73 27.93-233.74"/></g><g opacity=".5"><path fill="#fff" d="m1063.71 744.73-190.96 11.48 190.96-11.48Z"/><path stroke="#fff" stroke-dasharray="12 12" stroke-miterlimit="10" stroke-width="2" d="m1063.71 744.73-190.96 11.48"/></g><g opacity=".5"><path fill="#fff" d="m885.01 635.29 85.03 229.44-85.03-229.44Z"/><path stroke="#fff" stroke-dasharray="12 12" stroke-miterlimit="10" stroke-width="2" d="m885.01 635.29 85.03 229.44"/></g><g opacity=".5"><path fill="#fff" d="m810.14 530.82 187.83 100.17-187.83-100.17Z"/><path stroke="#fff" stroke-dasharray="12 12" stroke-miterlimit="10" stroke-width="2" d="m810.14 530.82 187.83 100.17"/></g><g opacity=".5"><path fill="#fff" d="m885.01 635.29 54.78-91.04-54.78 91.04Z"/><path stroke="#fff" stroke-dasharray="12 12" stroke-miterlimit="10" stroke-width="2" d="m885.01 635.29 54.78-91.04"/></g><g opacity=".5"><path fill="#fff" d="m985.44 455.69 12.53 175.3-12.53-175.3Z"/><path stroke="#fff" stroke-dasharray="12 12" stroke-miterlimit="10" stroke-width="2" d="m985.44 455.69 12.53 175.3"/></g><g opacity=".5"><path fill="#fff" d="m1123.59 570.99-510.93-10.1 510.93 10.1Z"/><path stroke="#fff" stroke-dasharray="12 12" stroke-miterlimit="10" stroke-width="2" d="m1123.59 570.99-510.93-10.1"/></g><g opacity=".5"><path fill="#fff" d="m1063.71 744.73-65.74-113.74 65.74 113.74Z"/><path stroke="#fff" stroke-dasharray="12 12" stroke-miterlimit="10" stroke-width="2" d="m1063.71 744.73-65.74-113.74"/></g><g opacity=".5"><path fill="#fff" d="m1123.59 570.99-125.62 60 125.62-60Z"/><path stroke="#fff" stroke-dasharray="12 12" stroke-miterlimit="10" stroke-width="2" d="m1123.59 570.99-125.62 60"/></g><g opacity=".5"><path fill="#fff" d="m568.44 659.1 241.7-128.28-241.7 128.28Z"/><path stroke="#fff" stroke-dasharray="12 12" stroke-miterlimit="10" stroke-width="2" d="m568.44 659.1 241.7-128.28"/></g></g><path fill="#fff" d="M301.06 421.56V624h-33.18V493.24c0-5.227.28-10.873.84-16.94l-61.18 114.94c-2.893 5.507-7.327 8.26-13.3 8.26h-5.32c-5.973 0-10.407-2.753-13.3-8.26l-61.88-115.36c.28 3.08.513 6.113.7 9.1.187 2.987.28 5.74.28 8.26V624H81.54V421.56h28.42c1.68 0 3.127.047 4.34.14 1.213.093 2.287.327 3.22.7a6.472 6.472 0 0 1 2.66 1.82c.84.84 1.633 1.96 2.38 3.36L183.18 540a104.532 104.532 0 0 1 4.34 9.24c1.4 3.173 2.753 6.44 4.06 9.8a200.17 200.17 0 0 1 4.06-9.94c1.4-3.267 2.893-6.393 4.48-9.38l59.78-112.14c.747-1.4 1.54-2.52 2.38-3.36.84-.84 1.727-1.447 2.66-1.82a12.632 12.632 0 0 1 3.36-.7c1.213-.093 2.66-.14 4.34-.14h28.42Zm152.128 126-24.64-67.34c-1.214-2.987-2.474-6.533-3.78-10.64a344.981 344.981 0 0 1-3.92-13.3 270.36 270.36 0 0 1-3.78 13.44c-1.307 4.107-2.567 7.7-3.78 10.78l-24.5 67.06h64.4Zm66.5 76.44h-29.12c-3.267 0-5.927-.793-7.98-2.38a15.805 15.805 0 0 1-4.621-6.16l-15.119-41.3h-83.86l-15.12 41.3c-.747 2.147-2.194 4.107-4.34 5.88-2.147 1.773-4.807 2.66-7.98 2.66h-29.401l79.661-202.44h38.36L519.688 624Zm181.818-101.5v81.9c-10.267 7.56-21.233 13.113-32.9 16.66-11.573 3.453-23.987 5.18-37.24 5.18-16.52 0-31.5-2.567-44.94-7.7-13.347-5.133-24.78-12.273-34.3-21.42-9.427-9.147-16.707-20.067-21.84-32.76-5.133-12.693-7.7-26.553-7.7-41.58 0-15.213 2.473-29.167 7.42-41.86 4.947-12.693 11.947-23.613 21-32.76 9.147-9.147 20.207-16.24 33.18-21.28 12.973-5.04 27.533-7.56 43.68-7.56 8.213 0 15.867.653 22.96 1.96 7.187 1.307 13.813 3.127 19.88 5.46 6.16 2.24 11.76 4.993 16.8 8.26 5.04 3.267 9.66 6.86 13.86 10.78l-10.78 17.08c-1.68 2.707-3.873 4.387-6.58 5.04-2.707.56-5.647-.14-8.82-2.1l-9.24-5.32c-3.08-1.773-6.533-3.313-10.36-4.62-3.733-1.307-7.98-2.38-12.74-3.22-4.667-.84-10.08-1.26-16.24-1.26-9.987 0-19.04 1.68-27.16 5.04-8.027 3.36-14.887 8.167-20.58 14.42-5.693 6.253-10.08 13.767-13.16 22.54s-4.62 18.573-4.62 29.4c0 11.573 1.633 21.933 4.9 31.08 3.36 9.053 8.027 16.753 14 23.1 6.067 6.253 13.347 11.06 21.84 14.42 8.493 3.267 17.967 4.9 28.42 4.9 7.467 0 14.14-.793 20.02-2.38a98.43 98.43 0 0 0 17.22-6.44v-36.68h-25.48c-2.427 0-4.34-.653-5.74-1.96-1.307-1.4-1.96-3.08-1.96-5.04V522.5h67.2ZM908.45 421.56V624h-19.32c-2.987 0-5.507-.467-7.56-1.4-1.96-1.027-3.873-2.707-5.74-5.04L770.13 482.6c.56 6.16.84 11.853.84 17.08V624h-33.18V421.56h19.74c1.587 0 2.94.093 4.06.28 1.213.093 2.24.373 3.08.84.933.373 1.82.98 2.66 1.82.84.747 1.773 1.773 2.8 3.08L876.25 563.1c-.28-3.267-.513-6.487-.7-9.66-.187-3.173-.28-6.113-.28-8.82V421.56h33.18Zm126.56 172.06c7.28 0 13.77-1.213 19.46-3.64 5.79-2.427 10.64-5.833 14.56-10.22 3.92-4.387 6.91-9.707 8.96-15.96 2.15-6.253 3.22-13.253 3.22-21V421.56h37.66V542.8c0 12.04-1.96 23.193-5.88 33.46-3.82 10.173-9.38 18.993-16.66 26.46-7.18 7.373-15.96 13.16-26.32 17.36-10.36 4.107-22.02 6.16-35 6.16-13.06 0-24.78-2.053-35.138-6.16-10.36-4.2-19.18-9.987-26.46-17.36-7.186-7.467-12.74-16.287-16.66-26.46-3.826-10.267-5.74-21.42-5.74-33.46V421.56h37.66v121.1c0 7.747 1.027 14.747 3.08 21 2.147 6.253 5.18 11.62 9.098 16.1 4.02 4.387 8.87 7.793 14.56 10.22 5.79 2.427 12.32 3.64 19.6 3.64Zm234.13-135.24c-1.12 1.96-2.33 3.407-3.64 4.34-1.21.84-2.75 1.26-4.62 1.26-1.96 0-4.1-.7-6.44-2.1-2.24-1.493-4.94-3.127-8.12-4.9-3.17-1.773-6.9-3.36-11.2-4.76-4.2-1.493-9.19-2.24-14.98-2.24-5.22 0-9.8.653-13.72 1.96-3.92 1.213-7.23 2.94-9.94 5.18a21.238 21.238 0 0 0-5.88 8.12c-1.3 3.08-1.96 6.487-1.96 10.22 0 4.76 1.31 8.727 3.92 11.9 2.71 3.173 6.26 5.88 10.64 8.12 4.39 2.24 9.38 4.247 14.98 6.02 5.6 1.773 11.34 3.687 17.22 5.74a144.58 144.58 0 0 1 17.22 7c5.6 2.613 10.6 5.973 14.98 10.08 4.39 4.013 7.89 8.96 10.5 14.84 2.71 5.88 4.06 13.02 4.06 21.42 0 9.147-1.58 17.733-4.76 25.76-3.08 7.933-7.65 14.887-13.72 20.86-5.97 5.88-13.3 10.547-21.98 14-8.68 3.36-18.62 5.04-29.82 5.04-6.44 0-12.78-.653-19.04-1.96a98.331 98.331 0 0 1-18.06-5.32 97.594 97.594 0 0 1-16.1-8.4c-5.04-3.267-9.52-6.907-13.44-10.92l11.06-18.06c.94-1.307 2.15-2.38 3.64-3.22 1.5-.933 3.08-1.4 4.76-1.4 2.34 0 4.86.98 7.56 2.94 2.71 1.867 5.93 3.967 9.66 6.3 3.74 2.333 8.08 4.48 13.02 6.44 5.04 1.867 11.06 2.8 18.06 2.8 10.74 0 19.04-2.52 24.92-7.56 5.88-5.133 8.82-12.46 8.82-21.98 0-5.32-1.35-9.66-4.06-13.02-2.61-3.36-6.11-6.16-10.5-8.4-4.38-2.333-9.38-4.293-14.98-5.88a498.961 498.961 0 0 1-17.08-5.18 147.876 147.876 0 0 1-17.08-6.72c-5.6-2.613-10.59-6.02-14.98-10.22-4.38-4.2-7.93-9.427-10.64-15.68-2.61-6.347-3.92-14.14-3.92-23.38 0-7.373 1.45-14.56 4.34-21.56 2.99-7 7.28-13.207 12.88-18.62 5.6-5.413 12.51-9.753 20.72-13.02 8.22-3.267 17.64-4.9 28.28-4.9 11.95 0 22.96 1.867 33.04 5.6 10.08 3.733 18.67 8.96 25.76 15.68l-9.38 17.78Z"/><defs><clipPath id="a"><path fill="#fff" d="M205 54h926.9v928.9H205z"/></clipPath></defs></svg>