<svg xmlns="http://www.w3.org/2000/svg" width="1em" height="1em" viewBox="0 0 24 24"><path fill="rgba(255, 255, 255, 0)" d="M0 0h24v24H0z"/><g><animateTransform fill="none" attributeName="transform" dur="30s" repeatCount="indefinite" type="rotate" values="0 12 12;360 12 12"/></g><g fill="currentColor"><path d="m15.22 6.03 2.53-1.94L14.56 4 13.5 1l-1.06 3-3.19.09 2.53 1.94-.91 3.06 2.63-1.81 2.63 1.81-.91-3.06Z"><animate fill="freeze" attributeName="fill-opacity" dur="0.4s" values="1;0"/></path><path d="M19.61 12.25 21.25 11l-2.06-.05L18.5 9l-.69 1.95-2.06.05 1.64 1.25-.59 1.98 1.7-1.17 1.7 1.17-.59-1.98Z"><animate fill="freeze" attributeName="fill-opacity" begin="0.2s" dur="0.4s" values="1;0"/></path></g><g fill="currentColor" stroke="currentColor" stroke-linecap="round" stroke-linejoin="round" stroke-width="2"><path d="M7 6a10.994 10.994 0 0 0 12.56 10.89C17.95 19.36 15.17 21 12 21a9 9 0 0 1-9-9c0-3.17 1.64-5.95 4.11-7.56C7.04 4.95 7 5.47 7 6Z"/><set attributeName="opacity" begin="0.6s" to="0"/></g></svg>