<?xml version="1.0" standalone="no"?>
<!DOCTYPE svg PUBLIC "-//W3C//DTD SVG 20010904//EN"
 "http://www.w3.org/TR/2001/REC-SVG-20010904/DTD/svg10.dtd">
<svg version="1.0" xmlns="http://www.w3.org/2000/svg"
 width="287.000000pt" height="175.000000pt" viewBox="0 0 287.000000 175.000000"
 preserveAspectRatio="xMidYMid meet">

<g transform="translate(0.000000,175.000000) scale(0.100000,-0.100000)"
fill="#000000" stroke="none">
<path d="M830 1467 c0 -152 3 -277 8 -277 4 0 68 61 142 135 l135 135 -143
143 -142 142 0 -278z"/>
<path d="M1722 1421 l-283 -285 -144 144 -145 145 -140 -140 -140 -140 283
-283 283 -283 287 288 287 287 0 278 c0 153 -1 277 -2 276 -2 -1 -130 -130
-286 -287z"/>
</g>
</svg>
